
<svg version="1.1" fill='#007bff' class="svg-logo" xmlns="http://www.w3.org/2000/svg" xmlns:xlink="http://www.w3.org/1999/xlink" x="0px" y="0px"
	 viewBox="0 0 512 512" style="enable-background:new 0 0 512 512;" xml:space="preserve">
<g>
	<g>
		<path d="M501.801,62.547h-30.717V51.116c0-5.633-4.566-10.199-10.199-10.199H51.115c-5.633,0-10.199,4.566-10.199,10.199v11.431
			H10.199C4.566,62.547,0,67.113,0,72.746v366.507c0,5.633,4.566,10.199,10.199,10.199h30.717v11.431
			c0,5.633,4.566,10.199,10.199,10.199h409.769c5.633,0,10.199-4.566,10.199-10.199v-11.431h30.717
			c5.633,0,10.199-4.566,10.199-10.199V72.746C512,67.113,507.434,62.547,501.801,62.547z M40.916,429.054H20.398v-0.001V82.946
			h20.518V429.054z M450.685,450.684H61.315V61.315h389.371V450.684z M491.602,429.053h-20.518V82.946h20.518V429.053z"/>
	</g>
</g>
<g>
	<g>
		<path d="M422.543,316.467V108.099c0-2.949-1.276-5.753-3.499-7.69c-2.223-1.937-5.176-2.814-8.097-2.413l-195.353,27.021
			c-5.044,0.698-8.802,5.01-8.802,10.103v170.489c-5.42-3.813-11.753-6.753-18.857-8.654c-16.066-4.299-34.273-2.789-51.266,4.25
			c-16.993,7.038-30.934,18.845-39.256,33.245c-8.829,15.277-10.396,31.647-4.413,46.093s18.667,24.913,35.714,29.473
			c5.999,1.605,12.295,2.4,18.717,2.4c10.775,0,21.902-2.24,32.55-6.651c16.993-7.038,30.934-18.845,39.256-33.245
			c5.584-9.662,8.254-19.76,7.955-29.533v-152.58l174.954-24.199V279.08c-5.42-3.813-11.753-6.754-18.858-8.654
			c-16.066-4.299-34.273-2.789-51.266,4.25c-16.993,7.038-30.934,18.845-39.256,33.245c-8.829,15.277-10.396,31.647-4.413,46.093
			s18.667,24.913,35.714,29.473c5.999,1.605,12.295,2.4,18.717,2.4c10.775,0,21.902-2.24,32.55-6.651
			c16.993-7.038,30.934-18.845,39.256-33.245C420.168,336.332,422.839,326.237,422.543,316.467z M201.574,362.314
			c-6.089,10.537-16.531,19.274-29.401,24.606c-8.412,3.485-16.976,5.14-24.959,5.139c-16.338-0.001-30.239-6.938-35.369-19.321
			c-3.5-8.45-2.354-18.423,3.228-28.08c6.089-10.537,16.531-19.274,29.401-24.606c8.412-3.485,16.976-5.139,24.959-5.139
			c16.338,0,30.239,6.938,35.369,19.321C208.302,342.684,207.156,352.656,201.574,362.314z M396.927,335.785
			c-6.089,10.537-16.531,19.274-29.401,24.606c-25.627,10.616-52.691,4.253-60.327-14.182c-3.5-8.45-2.354-18.423,3.228-28.081
			c6.089-10.537,16.531-19.274,29.401-24.606c25.629-10.615,52.691-4.253,60.327,14.182
			C403.655,316.153,402.508,326.126,396.927,335.785z M402.144,145.616l-174.954,24.2v-25.81l174.954-24.2V145.616z"/>
	</g>
</g>
<g>
	<g>
		<path d="M86.693,126.47c-5.633,0-10.199,4.566-10.199,10.199v133.61c0,5.633,4.566,10.199,10.199,10.199
			c5.633,0,10.199-4.566,10.199-10.199v-133.61C96.892,131.036,92.326,126.47,86.693,126.47z"/>
	</g>
</g>
<g>
	<g>
		<path d="M86.693,76.494c-5.633,0-10.199,4.566-10.199,10.199v14.279c0,5.633,4.566,10.199,10.199,10.199
			c5.633,0,10.199-4.566,10.199-10.199V86.693C96.892,81.06,92.326,76.494,86.693,76.494z"/>
	</g>
</g>
</svg>